<?xml version="1.0" standalone="no"?>
<!DOCTYPE svg PUBLIC "-//W3C//DTD SVG 20010904//EN"
 "http://www.w3.org/TR/2001/REC-SVG-20010904/DTD/svg10.dtd">
<svg version="1.0" xmlns="http://www.w3.org/2000/svg"
 width="300.000000pt" height="200.000000pt" viewBox="0 0 300.000000 200.000000"
 preserveAspectRatio="xMidYMid meet">
<metadata>
Created by potrace 1.10, written by Peter Selinger 2001-2011
</metadata>
<g transform="translate(0.000000,200.000000) scale(0.100000,-0.100000)"
fill="#000000" stroke="none">
<path d="M1980 1650 c-30 -5 -68 -14 -85 -20 l-29 -11 119 -119 c78 -79 122
-115 126 -107 11 19 29 127 29 173 0 78 -45 102 -160 84z m108 -52 c22 -18 12
-128 -12 -128 -20 0 -131 119 -121 129 22 21 106 20 133 -1z"/>
<path d="M1770 1574 c-208 -116 -435 -361 -556 -601 l-34 -67 42 -42 42 -41
146 146 c157 157 217 205 243 195 24 -9 21 -30 -12 -77 -28 -41 -251 -288
-285 -316 -16 -13 -14 -17 25 -57 l41 -42 59 34 c207 117 389 273 511 440 36
49 115 203 106 207 -2 1 -62 59 -133 129 l-130 128 -65 -36z m173 -123 l110
-110 -26 -63 c-15 -35 -38 -75 -50 -88 -13 -14 -24 -29 -26 -35 -6 -23 -128
-153 -216 -230 -97 -85 -267 -195 -302 -195 -54 0 -42 22 85 161 187 206 207
242 158 288 -22 20 -28 22 -58 12 -42 -14 -64 -33 -220 -187 -112 -112 -129
-124 -147 -115 -12 7 -18 19 -16 30 6 33 74 160 105 194 16 19 30 38 30 42 0
7 67 89 130 158 39 43 186 170 210 181 8 3 35 19 60 35 25 16 49 30 54 30 5 1
58 -48 119 -108z"/>
<path d="M1775 1470 c-32 -13 -75 -63 -85 -100 -25 -86 47 -180 138 -180 59 0
96 22 128 76 45 76 21 159 -58 200 -30 15 -91 18 -123 4z m112 -40 c39 -23 55
-52 55 -96 0 -44 -24 -81 -67 -101 -29 -14 -41 -14 -75 -4 -93 28 -107 159
-22 205 37 21 71 20 109 -4z"/>
<path d="M1780 1390 c-12 -12 -20 -33 -20 -55 0 -70 76 -100 125 -50 30 30 32
64 4 99 -26 33 -79 36 -109 6z m79 -34 c18 -22 -4 -58 -32 -54 -37 5 -36 68 1
68 11 0 25 -6 31 -14z"/>
<path d="M1247 1199 c-123 -24 -230 -104 -280 -211 -15 -31 -27 -62 -27 -68 0
-7 23 8 50 33 51 46 106 70 190 82 43 6 47 10 95 83 27 42 51 80 53 85 4 9
-18 8 -81 -4z m-12 -76 c-10 -16 -25 -32 -34 -38 -22 -14 -121 -33 -126 -25
-13 20 106 89 154 90 23 0 23 0 6 -27z"/>
<path d="M1426 948 c-169 -169 -276 -290 -276 -311 0 -4 5 -7 10 -7 16 0 323
304 398 395 100 119 98 115 77 115 -10 0 -104 -87 -209 -192z"/>
<path d="M1121 882 c-8 -15 -1 -28 43 -71 l53 -52 16 24 c15 23 14 25 -32 71
-51 50 -65 55 -80 28z"/>
<path d="M1701 827 c-7 -10 -44 -37 -81 -62 l-68 -45 -4 -57 c-5 -69 -46 -165
-91 -210 -39 -41 -30 -41 45 -1 113 60 183 153 208 275 6 29 10 67 8 84 -3 29
-4 31 -17 16z m-42 -145 c-20 -61 -71 -133 -85 -120 -4 5 21 147 27 152 2 2
18 10 34 19 37 19 43 6 24 -51z"/>
<path d="M1042 739 c-54 -10 -98 -35 -125 -71 -29 -39 -17 -58 39 -58 l48 0
-42 -35 c-46 -40 -102 -143 -102 -188 0 -29 1 -30 44 -25 24 3 64 16 89 28 48
24 95 66 85 76 -5 4 -114 -41 -151 -63 -14 -8 -19 27 -8 55 6 15 29 47 51 72
47 53 50 81 13 108 l-26 19 28 19 c28 18 28 18 52 -10 23 -27 23 -36 6 -82 -2
-6 5 -21 15 -34 17 -21 23 -22 76 -16 62 8 76 24 76 84 l-1 27 -22 -25 c-33
-37 -68 -60 -94 -60 -13 0 -23 3 -23 6 0 12 24 51 48 77 l26 27 -42 0 c-47 0
-51 6 -22 43 25 31 18 36 -38 26z"/>
<path d="M1296 719 c-20 -19 -19 -20 20 -60 53 -55 72 -65 91 -47 18 19 10 35
-46 84 -45 41 -46 41 -65 23z"/>
<path d="M1256 610 c-10 -19 -33 -48 -50 -64 -17 -16 -25 -26 -18 -22 8 5 12
0 12 -17 0 -16 -13 -36 -35 -56 -39 -34 -65 -40 -65 -15 0 8 -5 12 -10 9 -16
-10 -62 -85 -58 -95 4 -12 110 32 146 61 60 49 107 146 100 207 l-3 27 -19
-35z"/>
</g>
</svg>
