<?xml version="1.0" standalone="no"?>
<!DOCTYPE svg PUBLIC "-//W3C//DTD SVG 20010904//EN"
 "http://www.w3.org/TR/2001/REC-SVG-20010904/DTD/svg10.dtd">
<svg version="1.0" xmlns="http://www.w3.org/2000/svg"
 width="200.000000pt" height="200.000000pt" viewBox="0 0 200.000000 200.000000"
 preserveAspectRatio="xMidYMid meet">
<metadata>
Created by potrace 1.10, written by Peter Selinger 2001-2011
</metadata>
<g transform="translate(0.000000,200.000000) scale(0.100000,-0.100000)"
fill="#000000" stroke="none">
<path d="M1519 1677 c-74 -84 -147 -168 -162 -186 l-28 -34 -64 22 c-318 104
-663 3 -960 -280 -51 -49 -112 -114 -135 -144 l-42 -55 61 -69 c98 -110 225
-226 311 -283 67 -44 77 -54 67 -68 -7 -8 -75 -87 -151 -174 l-139 -159 44
-38 c24 -21 46 -38 49 -38 9 1 1365 1572 1365 1582 0 5 -19 25 -41 44 l-42 34
-133 -154z m155 70 c-1 -13 -1281 -1497 -1303 -1511 -5 -3 -14 0 -20 8 -8 10
14 42 103 144 130 149 156 184 156 205 0 17 -54 66 -136 122 -60 41 -240 215
-269 259 -10 15 -14 33 -10 46 10 33 172 191 264 258 152 111 307 175 473 194
109 12 198 3 322 -34 l74 -21 28 23 c16 13 89 93 163 177 123 142 158 171 155
130z"/>
<path d="M833 1420 c-152 -40 -325 -140 -465 -269 -100 -93 -124 -131 -108
-170 25 -62 262 -270 354 -312 35 -15 43 -16 67 -3 40 20 119 121 119 150 0
14 -10 44 -22 67 -31 59 -32 175 -1 232 28 52 67 89 123 114 55 25 112 26 197
4 l65 -18 54 58 c30 32 54 66 54 76 0 30 -46 63 -107 77 -84 20 -243 17 -330
-6z m332 -37 c41 -9 75 -19 75 -22 0 -4 -20 -30 -45 -58 l-45 -52 -43 19 c-52
24 -146 26 -209 4 -61 -20 -117 -70 -153 -135 -26 -47 -30 -64 -30 -134 0 -69
4 -89 27 -134 31 -59 33 -54 -40 -136 l-43 -49 -32 19 c-71 40 -186 133 -266
214 l-83 85 94 92 c153 148 334 255 492 289 85 19 212 18 301 -2z"/>
<path d="M911 1193 c-32 -17 -66 -45 -85 -71 -27 -39 -31 -52 -31 -110 0 -51
5 -73 20 -94 26 -35 41 -41 66 -25 26 16 173 186 201 232 l21 37 -25 25 c-40
39 -100 42 -167 6z m156 -27 c3 -2 -44 -61 -104 -130 l-108 -126 -12 28 c-17
37 -16 107 1 140 34 65 107 105 175 97 25 -3 46 -7 48 -9z"/>
<path d="M1494 1295 l-38 -47 35 -26 c56 -43 219 -205 219 -218 0 -19 -175
-180 -257 -235 -158 -107 -310 -159 -463 -159 l-87 0 -42 -45 c-22 -24 -41
-49 -41 -54 0 -15 123 -24 224 -18 50 3 125 15 166 27 211 59 459 235 623 441
l37 46 -64 74 c-71 83 -157 167 -228 223 l-46 37 -38 -46z m124 -77 c73 -63
192 -195 192 -215 0 -22 -178 -200 -269 -268 -104 -79 -241 -148 -346 -176
-83 -22 -251 -37 -281 -25 -36 14 5 27 93 32 221 10 454 126 651 322 112 113
110 124 -33 266 -58 57 -105 106 -105 110 0 20 44 -1 98 -46z"/>
</g>
</svg>
